<svg xmlns="http://www.w3.org/2000/svg" id="Layer_1" viewBox="0 0 512 512" data-name="Layer 1"><path d="m263.99 496c0 4.42-3.58 8.01-8.01 8.01h-153.35c-39.41 0-71.48-32.06-71.48-71.48v-75.68l-9.49 9.49c-3.13 3.13-8.2 3.13-11.33 0s-3.13-8.2 0-11.32l23.16-23.16c.19-.19.39-.37.59-.54.08-.07.17-.12.25-.19.13-.09.25-.19.38-.28.1-.07.21-.13.32-.19.12-.07.23-.15.36-.21.11-.06.22-.11.33-.16.13-.06.25-.12.38-.18.11-.04.21-.08.32-.12.14-.05.28-.1.42-.15.11-.03.21-.05.32-.08.15-.04.29-.08.44-.11.12-.02.24-.04.36-.05.14-.02.28-.05.42-.06.2-.02.4-.03.61-.03h.18s.12 0 .18 0c.2 0 .41.01.61.03.14.01.28.04.42.06.12.02.24.03.36.05.15.03.29.07.44.11.11.03.21.05.32.08.14.04.28.1.42.15.11.04.22.07.32.12.13.05.25.12.38.18.11.05.22.1.33.16.12.06.24.14.36.21.11.06.21.12.32.19.13.09.25.18.38.28.08.06.17.12.25.19.21.17.4.35.59.54l23.16 23.16c3.13 3.13 3.13 8.2 0 11.32-1.56 1.56-3.61 2.35-5.66 2.35s-4.1-.78-5.66-2.35l-9.49-9.49v75.68c0 30.58 24.88 55.46 55.46 55.46h153.35c4.42 0 8.01 3.58 8.01 8.01zm174.22-291.8v245.14c0 4.31-3.41 7.85-7.72 8l-174.22 6.32c-.09 0-.17 0-.26 0-.01 0-.02 0-.03 0s-.02 0-.03 0c-.09 0-.17 0-.26 0l-174.19-6.32c-4.31-.16-7.72-3.69-7.72-8v-245.14c0-2.58 1.24-5 3.34-6.51 2.1-1.5 4.79-1.91 7.23-1.08l27.24 9.22v-37.04c0-2.59 1.26-5.03 3.37-6.53s4.82-1.89 7.27-1.04l76.77 26.74c-5.66-9.17-10.73-20.06-10.73-35.93 0-37.35 30.37-67.73 67.71-67.73s67.73 30.38 67.73 67.73c0 15.87-5.08 26.77-10.75 35.93l76.75-26.74c2.45-.85 5.16-.47 7.27 1.03s3.37 3.94 3.37 6.53v37.05l27.27-9.23c2.44-.83 5.14-.43 7.23 1.08 2.1 1.5 3.34 3.93 3.34 6.51zm-53.86-24.13-84.51 29.44c-1.66 3.65-2.99 7.62-3.78 12.16 4.7 3.77 7.72 9.56 7.72 16.04 0 .28-.03.55-.04.83l80.6-27.28v-31.2zm-256.73 225.6 120.36 38.98v-156.51c-11.81-3.33-20.63-13.84-21.45-26.5l-98.91-33.48zm101.15-172.52c-2.51 0-4.55 2.04-4.55 4.55s2.08 4.55 4.55 4.55h54.45c2.47 0 4.55-2.08 4.55-4.55s-2.08-4.55-4.55-4.55zm40.72 26.58v-1.46h-27.01v1.46c0 7.45 6.06 13.51 13.51 13.51s13.51-6.06 13.51-13.51zm-5.5 184.92 120.36-38.98v-177.5l-98.91 33.47c-.81 12.66-9.64 23.16-21.45 26.5zm-59.7-292.61c0 15.18 5.81 23.89 12.53 33.97 2.62 3.93 5.39 8.09 7.87 12.78.23.37.43.76.59 1.16 2.54 4.99 4.71 10.6 6.05 17.19h16.63v-50.24c-8.44-2.36-15.59-8.35-19.26-16.59-1.8-4.04.01-8.77 4.05-10.58 4.04-1.8 8.77.01 10.58 4.05 2.22 4.99 7.19 8.21 12.64 8.21s10.43-3.23 12.68-8.23c1.81-4.04 6.56-5.83 10.59-4.02s5.83 6.55 4.02 10.59c-3.7 8.23-10.86 14.21-19.28 16.57v50.24h16.64c1.36-6.74 3.61-12.46 6.22-17.54.02-.04.04-.08.06-.13 2.57-4.98 5.49-9.35 8.25-13.48 6.73-10.07 12.54-18.78 12.54-33.95 0-28.52-23.2-51.72-51.72-51.72s-51.69 23.2-51.69 51.72zm-76.68 59.21 80.63 27.29c-.01-.28-.04-.56-.04-.84 0-6.47 3.01-12.25 7.7-16.02-.79-4.55-2.11-8.52-3.77-12.18l-84.52-29.44zm-37.81 230.36 109.04 3.96-81.7-26.46c-3.3-1.07-5.54-4.15-5.54-7.62v-188.75l-21.8-7.38zm332.39-226.25-21.83 7.39v188.75c0 3.47-2.24 6.55-5.54 7.62l-81.71 26.46 109.07-3.96v-226.25zm-166.2-135.99c4.42 0 8.01-3.58 8.01-8.01v-15.02c0-4.42-3.58-8.01-8.01-8.01s-8.01 3.58-8.01 8.01v15.02c0 4.42 3.58 8.01 8.01 8.01zm-48.01 7.02c1.48 2.57 4.17 4 6.94 4 1.36 0 2.74-.35 4-1.07 3.83-2.21 5.14-7.11 2.93-10.94l-7.51-13.01c-2.21-3.83-7.11-5.14-10.94-2.93s-5.14 7.11-2.93 10.94zm89.08 4c2.77 0 5.46-1.44 6.94-4l7.51-13.01c2.21-3.83.9-8.73-2.93-10.94s-8.73-.9-10.94 2.93l-7.51 13.01c-2.21 3.83-.9 8.73 2.93 10.94 1.26.73 2.64 1.07 4 1.07zm33.07 63.11c0 4.42 3.58 8.01 8.01 8.01h15.02c4.42 0 8.01-3.58 8.01-8.01s-3.58-8.01-8.01-8.01h-15.02c-4.42 0-8.01 3.58-8.01 8.01zm6.02-55.52-13.01 7.51c-3.83 2.21-5.14 7.11-2.93 10.94 1.48 2.57 4.17 4 6.94 4 1.36 0 2.74-.35 4-1.07l13.01-7.51c3.83-2.21 5.14-7.11 2.93-10.94s-7.11-5.14-10.94-2.93zm-168.29 13.87 13.01 7.51c1.26.73 2.64 1.07 4 1.07 2.77 0 5.46-1.44 6.94-4 2.21-3.83.9-8.73-2.93-10.94l-13.01-7.51c-3.83-2.21-8.73-.9-10.94 2.93s-.9 8.73 2.93 10.94zm-9.01 49.66h15c4.42 0 8.01-3.58 8.01-8.01s-3.58-8.01-8.01-8.01h-15c-4.42 0-8.01 3.58-8.01 8.01s3.58 8.01 8.01 8.01zm342.82-15.85c-3.13-3.13-8.2-3.13-11.33 0l-9.49 9.49v-75.68c0-39.41-32.06-71.48-71.48-71.48h-153.38c-4.42 0-8.01 3.58-8.01 8.01s3.58 8.01 8.01 8.01h153.38c30.58 0 55.46 24.88 55.46 55.46v75.68l-9.49-9.49c-3.13-3.13-8.2-3.13-11.33 0s-3.13 8.2 0 11.32l23.16 23.16c.19.19.38.36.58.53.04.03.09.06.13.1.16.13.33.26.5.37.04.03.08.05.12.07.18.12.36.23.55.33.03.01.06.03.08.04.2.11.41.21.63.3.02 0 .04.01.06.02.22.09.45.17.68.24.02 0 .04.01.06.02.23.07.46.13.69.17l.18.03c.2.04.4.07.6.09.26.03.53.04.8.04s.53-.01.8-.04c.21-.02.41-.06.61-.09.06 0 .11-.01.17-.03.24-.05.47-.11.7-.18.02 0 .04 0 .05-.01.23-.07.46-.15.69-.25.02 0 .03-.01.05-.02.22-.09.43-.19.63-.3.02-.01.05-.02.08-.04.19-.1.38-.22.56-.33.04-.02.08-.04.11-.07.18-.12.34-.25.51-.38.04-.03.08-.06.12-.09.2-.17.4-.34.58-.53l23.16-23.16c3.13-3.13 3.13-8.2 0-11.32z"></path></svg>