<svg xmlns="http://www.w3.org/2000/svg" id="Layer_1" viewBox="0 0 64 64" data-name="Layer 1"><path d="m44 47.32h-8.08v-29.07h7.27a1 1 0 1 0 0-1.94h-8.19a1 1 0 0 0 -1 1v13.69h-8.76a1 1 0 0 0 0 1.94h8.76v15.4a1 1 0 0 0 1 1h9a1 1 0 0 0 0-1.94z"></path><path d="m59.24 47.49h-2.16c1.69-1.36 2.66-3.83 2.72-6.93a3.61 3.61 0 0 0 .72-2.73 3.43 3.43 0 0 0 -1.19-1.83l.11-.05a1 1 0 0 0 .56-.95 1 1 0 0 0 -.56-.89c-2.87-1.35-5.26-1.67-7.11-1a4.45 4.45 0 0 0 -1.87 1.33 2.41 2.41 0 0 0 -2 .56c-.94.87-1.1 2.47-.54 5.31-.07 3.09 1 5.69 2.87 7.13h-2.17a3.55 3.55 0 0 0 -3.57 3.56v5.11a1 1 0 0 0 1 1h15.8a1 1 0 0 0 1-1v-5.11a3.55 3.55 0 0 0 -3.61-3.51zm-9.44-11c.09-.09.36-.12.88 0a1 1 0 0 0 1.15-.49c0-.1 1-2 4.93-.83a1.14 1.14 0 0 0 .37 1.62c.89.52 1.4 1 1.49 1.46a1 1 0 0 1 0 .49 8.53 8.53 0 0 0 -5-1.57 9.42 9.42 0 0 0 -1.06.06 6.78 6.78 0 0 0 -2.91 1c-.17-1.36.08-1.69.15-1.75zm.08 4.05a3.81 3.81 0 0 1 2.83-1.4 6.65 6.65 0 0 1 5.15 1.52c-.08 2.76-1 4.81-2.45 5.65a3 3 0 0 1 -3.09-.1c-1.58-.97-2.47-3.08-2.44-5.68zm5.14 8a1.09 1.09 0 0 1 -2.17 0 4.6 4.6 0 0 0 2.17 0zm5.86 6.64h-.69v-1.31a1 1 0 0 0 -1.94 0v1.27h-8.63v-1.27a1 1 0 0 0 -1.94 0v1.27h-.68v-4.14a1.61 1.61 0 0 1 1.63-1.57h2.46a3 3 0 0 0 5.71 0h2.45a1.61 1.61 0 0 1 1.63 1.57z"></path><path d="m60.75 22.8c2-6.62.37-10.62-.86-12.43a7.46 7.46 0 0 0 -5.76-3.45 7 7 0 0 0 -5.81 3.48c-2.11 3.25-2.28 7.76-.55 12.22-3 1.58-4.14 4.06-3.31 7.58a1 1 0 0 0 .94.75h17.39a1 1 0 0 0 1-.76 10.35 10.35 0 0 0 .21-1.48 5.8 5.8 0 0 0 -3.25-5.91zm-2.47-11.35c1 1.51 2.39 4.83.7 10.53-.44-.16-.91-.31-1.41-.44a1 1 0 0 1 -.57-.34 1.19 1.19 0 0 1 -.21-.66 6.62 6.62 0 0 0 2.21-5.37c-.07-2-.95-3.48-2.3-3.82h-.24c-3.54.06-4.27-.91-4.33-1a1 1 0 0 0 -.54-.62 4.23 4.23 0 0 1 2.45-.83 5.51 5.51 0 0 1 4.24 2.55zm-2 1.81h.05c.35.17.72.89.76 2 .06 1.7-.69 3.68-2.24 4.19a2.32 2.32 0 0 1 -1.74-.16c-2.56-1.29-2.11-4.74-1.46-6.93a9.45 9.45 0 0 0 4.65.9zm-3.56 9.1a3 3 0 0 0 .48-1 4.27 4.27 0 0 0 1 .12 3.84 3.84 0 0 0 .76-.08 2.76 2.76 0 0 0 .47 1 3.81 3.81 0 0 1 -2.74 0zm-2.9-10.7c-1.2 4-.64 7.15 1.56 8.8a1.3 1.3 0 0 1 -.22.75 1.08 1.08 0 0 1 -.57.33c-.37.1-.72.2-1.06.32-1.42-3.76-1.33-7.5.31-10.2zm12.18 16.89v.46h-15.8c-.36-2.44.58-3.92 3.1-5a.29.29 0 0 0 .1 0h.07c.39-.16.81-.3 1.27-.44a6.53 6.53 0 0 0 3.39 1 6.3 6.3 0 0 0 3.33-1c4.27 1.22 4.72 3.2 4.54 4.98z"></path><path d="m25.19 35.77-4.66-1.65-.59-.84v-1.81a4.1 4.1 0 0 0 .93-2.23v-.09a3.32 3.32 0 0 0 1.13-2.38 4.6 4.6 0 0 0 -.13-2.53 1.1 1.1 0 0 1 .49-.84 1 1 0 0 0 .46-.84c0-1.61-.09-6.42-3.25-7.35-3.9-3.76-11.41-.84-11.73-.71a1 1 0 0 0 -.6.74 1 1 0 0 0 .16.72c-1.4 1.36-2.13 3.53-2.12 6.48a1 1 0 0 0 .3.7 2.43 2.43 0 0 1 .56 1.26 4.35 4.35 0 0 0 -.14 2.38 3.55 3.55 0 0 0 1.21 2.38v.08a4.05 4.05 0 0 0 1 2.27l.18.18v1.31l-.79 1.12-4.7 1.67a3.9 3.9 0 0 0 -2.5 3.51l-.4 6.7a1 1 0 0 0 .26.73 1 1 0 0 0 .74.27h26.16a1 1 0 0 0 .7-.3 1 1 0 0 0 .26-.73l-.4-6.67a3.93 3.93 0 0 0 -2.53-3.53zm-15.93-.64.13-.19 3.2 3.21-1.33 1-.22.17zm1.31-1.76c.28.17.58.34.89.5a2.17 2.17 0 0 0 1 .25h3.16a2.11 2.11 0 0 0 1-.25c.35-.18.69-.37 1-.57l-3.59 3.59zm6.52 6-1-.78-.51-.38 3.19-3.21.1.15-.84 2zm-7.66-22.5a1 1 0 0 0 .49-.75 2 2 0 0 0 0-.25c2.14-.6 6.34-1.4 8.48.88a1 1 0 0 0 .52.29c1.48.3 1.91 2.82 2 5.07l-.15.14a.25.25 0 0 0 0-.07 7.53 7.53 0 0 0 -.25-.88l-.07-.15a5.52 5.52 0 0 0 -.34-.69l-.11-.12a6.24 6.24 0 0 0 -.5-.65l-.13-.13a4.84 4.84 0 0 0 -.63-.56 1 1 0 0 0 -1.05-.06 9 9 0 0 1 -4.91.52 6.06 6.06 0 0 0 -1.76 0l-.56.12-.17.06-.39.13-.2.1a2.91 2.91 0 0 0 -.35.18 1.37 1.37 0 0 0 -.2.13l-.32.23-.2.17-.29.31c0 .07-.11.13-.17.2a4.45 4.45 0 0 0 -.26.43 1.43 1.43 0 0 0 -.12.21 4.34 4.34 0 0 0 -.3.75 2.65 2.65 0 0 0 -.28-.43c.07-2.62.79-4.37 2.22-5.18zm-1.24 10.44a5.15 5.15 0 0 1 -.32-1.89h.13a1 1 0 0 0 .83-.17 1 1 0 0 0 .37-.76c0-2.43 1.17-2.94 2.18-3.11a4.41 4.41 0 0 1 1.21 0 11.85 11.85 0 0 0 5.41-.47 4.74 4.74 0 0 1 1 3.43 1 1 0 0 0 .86 1h.33a5.74 5.74 0 0 1 -.29 2 .88.88 0 0 0 -.28.06 1 1 0 0 0 -.61.81l-.08.86a2.17 2.17 0 0 1 -.5 1.19 5.46 5.46 0 0 1 -.54.53 11.72 11.72 0 0 1 -2.13 1.38.28.28 0 0 1 -.13 0h-3.15a.27.27 0 0 1 -.12 0 11.92 11.92 0 0 1 -2-1.32 6.18 6.18 0 0 1 -.63-.6 2.17 2.17 0 0 1 -.49-1.18l-.08-.86a1 1 0 0 0 -.61-.81 1.16 1.16 0 0 0 -.36-.09zm-6.19 17.75.34-5.65a2 2 0 0 1 1.25-1.81l4-1.42 2 4.6a1.36 1.36 0 0 0 .9.79 1.12 1.12 0 0 0 .32 0h.05a1.13 1.13 0 0 0 .32-.05h.09a1.54 1.54 0 0 0 .34-.17l2.49-1.88 1.55 1.16.95.71a1.11 1.11 0 0 0 .34.18h.09a1.13 1.13 0 0 0 .32.05h.05a1.24 1.24 0 0 0 .33 0 1.37 1.37 0 0 0 .89-.79l2-4.6 4 1.43a2 2 0 0 1 1.22 1.8l.34 5.65z"></path></svg>