<svg xmlns="http://www.w3.org/2000/svg" clip-rule="evenodd" fill-rule="evenodd" stroke-linejoin="round" stroke-miterlimit="2" viewBox="0 0 510 510"><path d="m49.941 118.926c-2.697.701-5.526 1.074-8.441 1.074-18.489 0-33.5-15.011-33.5-33.5s15.011-33.5 33.5-33.5 33.5 15.011 33.5 33.5c0 10.564-4.901 19.993-12.551 26.135l9.802 18.865h37.254v-81.664c0-23.013 18.828-41.836 41.808-41.836h207.346c23.012 0 41.836 18.825 41.836 41.836v81.664h37.254l9.802-18.865c-7.65-6.142-12.551-15.571-12.551-26.135 0-18.489 15.011-33.5 33.5-33.5s33.5 15.011 33.5 33.5-15.011 33.5-33.5 33.5c-2.915 0-5.744-.373-8.441-1.074l-11.847 22.802c-1.205 2.318-3.6 3.772-6.212 3.772h-41.505v93h35.239c3.222-15.134 16.677-26.5 32.766-26.5 18.489 0 33.5 15.011 33.5 33.5s-15.011 33.5-33.5 33.5c-16.089 0-29.544-11.366-32.766-26.5h-35.239v93h41.505c2.612 0 5.007 1.454 6.212 3.772l12.077 23.243c2.628-.663 5.378-1.015 8.211-1.015 18.489 0 33.5 15.011 33.5 33.5s-15.011 33.5-33.5 33.5-33.5-15.011-33.5-33.5c0-10.649 4.979-20.144 12.735-26.282l-9.986-19.218h-37.254v100.664c0 23.011-18.824 41.836-41.836 41.836h-207.346c-22.98 0-41.808-18.823-41.808-41.836v-100.664h-37.254l-9.986 19.218c7.756 6.138 12.735 15.633 12.735 26.282 0 18.489-15.011 33.5-33.5 33.5s-33.5-15.011-33.5-33.5 15.011-33.5 33.5-33.5c2.833 0 5.583.352 8.211 1.015l12.077-23.243c1.205-2.318 3.6-3.772 6.212-3.772h41.505v-93h-35.239c-3.222 15.134-16.677 26.5-32.766 26.5-18.489 0-33.5-15.011-33.5-33.5s15.011-33.5 33.5-33.5c16.089 0 29.544 11.366 32.766 26.5h35.239v-93h-41.505c-2.612 0-5.007-1.454-6.212-3.772zm336.554 341.238v-410.328c0-15.311-12.525-27.836-27.836-27.836h-207.346c-15.287 0-27.808 12.527-27.808 27.836v410.328c0 15.309 12.521 27.836 27.808 27.836h207.346c15.311 0 27.836-12.525 27.836-27.836zm62.505-214.664c0 10.762 8.738 19.5 19.5 19.5s19.5-8.738 19.5-19.5-8.738-19.5-19.5-19.5-19.5 8.738-19.5 19.5zm-388 0c0-10.762-8.738-19.5-19.5-19.5s-19.5 8.738-19.5 19.5 8.738 19.5 19.5 19.5 19.5-8.738 19.5-19.5zm290.937 24.186c-14.201 0-21.331 17.208-11.287 27.252 5.388 5.389 5.388 14.155 0 19.543l-14.669 14.669c-5.388 5.388-14.154 5.388-19.543 0-10.044-10.044-27.252-2.914-27.252 11.287 0 7.652-6.186 13.813-13.813 13.813h-20.746c-7.627 0-13.813-6.161-13.813-13.813 0-14.218-17.2-21.339-27.252-11.287-5.392 5.392-14.139 5.392-19.529.002l-14.683-14.671c-5.388-5.388-5.388-14.154 0-19.543 10.044-10.044 2.922-27.252-11.287-27.252-7.627 0-13.813-6.186-13.813-13.813v-20.746c0-7.627 6.186-13.813 13.813-13.813 14.209 0 21.331-17.208 11.287-27.252-5.392-5.392-5.392-14.139 0-19.531l14.681-14.681c5.392-5.392 14.139-5.392 19.531 0 10.044 10.044 27.252 2.922 27.252-11.287 0-7.627 6.186-13.813 13.813-13.813h20.746c7.627 0 13.813 6.186 13.813 13.813 0 14.209 17.208 21.331 27.252 11.287 5.389-5.388 14.155-5.388 19.543 0l14.669 14.681c5.392 5.392 5.392 14.139 0 19.531-10.044 10.044-2.914 27.252 11.287 27.252 7.652 0 13.813 6.186 13.813 13.813v20.746c0 7.627-6.161 13.813-13.813 13.813zm-193.687-34.373v20.374c26.486.15 39.747 32.197 21.127 51.022l14.42 14.408c18.842-18.628 50.866-5.366 51.016 21.133h20.374c.15-26.47 32.197-39.747 51.022-21.127l14.414-14.414c-18.62-18.825-5.343-50.872 21.127-51.022v-20.374c-26.468-.15-39.745-32.19-21.133-51.016l-14.408-14.42c-18.825 18.62-50.872 5.359-51.022-21.127h-20.374c-.15 26.483-32.19 39.745-51.016 21.133l-14.414 14.414c18.612 18.826 5.35 50.866-21.133 51.016zm96.756 67.043c-31.318 0-56.85-25.546-56.85-56.85 0-31.318 25.532-56.85 56.85-56.85 31.304 0 56.85 25.532 56.85 56.85 0 31.304-25.546 56.85-56.85 56.85zm0-14c23.595 0 42.85-19.255 42.85-42.85 0-23.605-19.255-42.85-42.85-42.85-23.605 0-42.85 19.245-42.85 42.85 0 23.595 19.245 42.85 42.85 42.85zm-18.941 165.315c-3.863 0-7-3.136-7-7 0-3.863 3.137-7 7-7h37.87c3.863 0 7 3.137 7 7 0 3.864-3.137 7-7 7zm-194.565-68.171c-10.762 0-19.5 8.738-19.5 19.5s8.738 19.5 19.5 19.5 19.5-8.738 19.5-19.5-8.738-19.5-19.5-19.5zm427-318.5c-10.762 0-19.5 8.738-19.5 19.5s8.738 19.5 19.5 19.5 19.5-8.738 19.5-19.5-8.738-19.5-19.5-19.5zm0 318.5c-10.762 0-19.5 8.738-19.5 19.5s8.738 19.5 19.5 19.5 19.5-8.738 19.5-19.5-8.738-19.5-19.5-19.5zm-427-318.5c-10.762 0-19.5 8.738-19.5 19.5s8.738 19.5 19.5 19.5 19.5-8.738 19.5-19.5-8.738-19.5-19.5-19.5z"></path></svg>