<svg xmlns="http://www.w3.org/2000/svg" id="Layer_1" height="512" viewBox="0 0 66 66" width="512"><g><g><path d="m15 44.5h-9.6c-1 0-1.9-.9-1.9-1.9v-2.9c0-.6.4-1 1-1s1 .4 1 1v2.8h9.4v-10.3l-2-2h-7.4v5.7c0 .6-.4 1-1 1s-1-.4-1-1v-5.8c0-1 .9-1.9 1.9-1.9h7.9c.3 0 .5.1.7.3l2.6 2.6c.2.2.3.4.3.7v10.8c0 1-.9 1.9-1.9 1.9z"></path></g><g><path d="m5.2 40.7h-1.2c-1.6 0-2.9-1.3-2.9-2.9s1.3-2.9 2.9-2.9h1.1c1.6 0 2.9 1.3 2.9 2.9s-1.3 2.9-2.8 2.9zm-1.2-3.8c-.6 0-.9.5-.9.9 0 .6.5.9.9.9h1.2c.4 0 .8-.4.8-.9 0-.6-.5-.9-.9-.9z"></path></g><g><g><path d="m19.3 19.1c-3.4 0-6-3.6-6-6.8 0-3.3 2.7-6 6-6s6 2.7 6 6c0 3.2-2.6 6.8-6 6.8zm0-10.8c-2.2 0-4 1.8-4 4s1.8 4.8 4 4.8 4-2.6 4-4.8-1.8-4-4-4z"></path></g><g><path d="m22.3 65c-2.2 0-3.9-1.8-3.9-3.9v-18.9c0-.6.4-1 1-1s1 .4 1 1v18.9c0 1 .9 1.9 1.9 1.9s1.9-.9 1.9-1.9v-29.9c0-.6.4-1 1-1s1 .4 1 1v29.9c0 2.1-1.7 3.9-3.9 3.9z"></path></g><g><path d="m16.4 64.9c-2.2 0-3.9-1.8-3.9-3.9v-17.5c0-.6.4-1 1-1s1 .4 1 1v17.5c0 1 .9 1.9 1.9 1.9s1.9-.9 1.9-1.9v-18.8c0-.6.4-1 1-1s1 .4 1 1v18.8c0 2.2-1.7 3.9-3.9 3.9z"></path></g><g><path d="m25.2 43.8c-.6 0-1-.4-1-1s.4-1 1-1c1.7 0 3.2-1.5 3.2-3.2v-8.2c0-3.4-2.6-6-6-6h-6.7c-2.7 0-5.1 1.8-5.9 4.5-.2.5-.7.8-1.2.7-.5-.2-.8-.7-.7-1.2 1.1-3.5 4.2-5.9 7.9-5.9h6.7c4.5 0 8 3.5 8 8v8.2c-.1 2.8-2.4 5.1-5.3 5.1z"></path></g></g><g><path d="m49.6 31.3c-3.8 0-7.4-1.4-10.2-4l-7 .7c-.4 0-.7-.1-.9-.5-.2-.3-.2-.7 0-1.1l3.7-6.2c-.2-.8-.4-1.6-.5-2.5-1-8.3 5.1-15.7 13.4-16.6 8.2-.9 15.7 5.2 16.7 13.4.9 8.4-5.2 15.9-13.5 16.7-.6.1-1.1.1-1.7.1zm-9.9-6.1c.3 0 .5.1.7.3 2.8 2.8 6.7 4.2 10.7 3.7 7.2-.7 12.5-7.2 11.7-14.5-.8-7.1-7.3-12.3-14.5-11.6s-12.5 7.2-11.7 14.5c.1.8.3 1.7.6 2.5.1.3.1.6-.1.8l-2.9 4.9 5.4-.6z"></path></g><g><path d="m46.4 24.4c-.3 0-.5-.1-.7-.3l-6.3-6.3c-.2-.2-.3-.4-.3-.7s.1-.5.3-.7l2.9-2.9c.4-.4 1-.4 1.4 0l2.7 2.7 7.9-8c.2-.2.4-.3.7-.3s.5.1.7.3l2.9 2.9c.4.4.4 1 0 1.4l-11.5 11.6c-.2.2-.4.3-.7.3zm-4.9-7.3 4.9 4.9 10.1-10.2-1.5-1.5-7.9 8c-.2.2-.4.3-.7.3s-.5-.1-.7-.3l-2.7-2.7z"></path></g><g><path d="m43 41.1h-6.2c-.6 0-1-.4-1-1v-6.2c0-.6.4-1 1-1h6.2c.6 0 1 .4 1 1v6.2c0 .6-.4 1-1 1zm-5.2-2h4.2v-4.2h-4.2z"></path></g><g><path d="m43 52h-6.2c-.6 0-1-.4-1-1v-6.2c0-.6.4-1 1-1h6.2c.6 0 1 .4 1 1v6.2c0 .6-.4 1-1 1zm-5.2-2h4.2v-4.2h-4.2z"></path></g><g><path d="m43 62.9h-6.2c-.6 0-1-.4-1-1v-6.2c0-.6.4-1 1-1h6.2c.6 0 1 .4 1 1v6.2c0 .6-.4 1-1 1zm-5.2-2h4.2v-4.2h-4.2z"></path></g><g><path d="m51.4 40.8c-.3 0-.5-.1-.7-.3l-2.4-2.4c-.4-.4-.4-1 0-1.4s1-.4 1.4 0l1.7 1.7 4.9-4.9c.4-.4 1-.4 1.4 0s.4 1 0 1.4l-5.6 5.6c-.2.2-.4.3-.7.3z"></path></g><g><path d="m51.4 51.7c-.3 0-.5-.1-.7-.3l-2.4-2.4c-.4-.4-.4-1 0-1.4s1-.4 1.4 0l1.7 1.7 4.9-4.9c.4-.4 1-.4 1.4 0s.4 1 0 1.4l-5.6 5.6c-.2.2-.4.3-.7.3z"></path></g><g><g><path d="m56 62.7c-.3 0-.5-.1-.7-.3l-6-5.9c-.4-.4-.4-1 0-1.4s1-.4 1.4 0l6 5.9c.4.4.4 1 0 1.4-.2.2-.4.3-.7.3z"></path></g><g><path d="m50 62.7c-.3 0-.5-.1-.7-.3-.4-.4-.4-1 0-1.4l6-5.9c.4-.4 1-.4 1.4 0s.4 1 0 1.4l-6 5.9c-.2.2-.4.3-.7.3z"></path></g></g></g></svg>