<svg xmlns="http://www.w3.org/2000/svg" id="Capa_1" height="512" viewBox="0 0 512 512" width="512"><g><path d="m90.309 358.201c-7.011-6.782-16.955-8.624-25.952-4.811-8.97 3.803-14.542 12.196-14.542 21.905v8.39h-25.467c-7.304 0-13.782 2.757-18.241 7.765-3.938 4.422-6.107 10.299-6.107 16.547 0 12.105 8.363 24.36 24.348 24.36h25.467v8.502c0 9.711 5.566 18.1 14.526 21.892 3.115 1.318 6.338 1.962 9.514 1.962 6.028 0 11.881-2.323 16.463-6.767l33.76-32.768c.009-.009.018-.017.026-.026 4.632-4.54 7.183-10.604 7.182-17.076 0-6.471-2.551-12.535-7.208-17.1zm23.306 56.228-33.743 32.752c-3.9 3.782-8.398 2.301-9.685 1.757-1.261-.533-5.373-2.692-5.373-8.078v-16.002c0-4.142-3.357-7.5-7.5-7.5h-32.966c-8.896 0-9.348-7.797-9.348-9.36 0-2.529.842-4.924 2.31-6.572 1.618-1.818 3.986-2.74 7.038-2.74h32.967c4.143 0 7.5-3.358 7.5-7.5v-15.89c0-5.388 4.131-7.559 5.397-8.095 1.275-.542 5.747-2.012 9.658 1.772l33.733 32.742c1.729 1.695 2.682 3.955 2.682 6.363.001 2.402-.947 4.656-2.67 6.351z"></path><path d="m157.99 327.552c-15.245-21.448-23.303-46.704-23.303-73.037 0-42.741 21.469-82.268 57.443-105.745 8.073-5.294 12.408-13.481 11.894-22.459-.544-9.5-6.427-18.421-14.985-22.726-8.083-4.064-17.292-3.387-25.249 1.846-26.118 17.061-47.368 40.667-61.453 68.264-1.883 3.689-.418 8.207 3.271 10.089 3.688 1.883 8.206.419 10.09-3.271 12.896-25.271 32.363-46.892 56.313-62.537 3.524-2.319 6.986-2.651 10.287-.991 3.739 1.88 6.515 6.067 6.75 10.183.209 3.635-1.522 6.683-5.13 9.049-40.22 26.247-64.231 70.47-64.231 118.297 0 29.466 9.017 57.727 26.123 81.792 2.463 3.389 2.996 6.707 1.583 9.863-1.661 3.713-5.777 6.605-10.009 7.033-3.733.377-6.862-1.146-9.279-4.514-19.672-27.578-30.069-60.172-30.069-94.26 0-15.377 2.123-30.545 6.312-45.083 1.146-3.98-1.15-8.136-5.131-9.283-3.979-1.147-8.136 1.15-9.283 5.131-4.577 15.887-6.897 32.453-6.897 49.235 0 37.229 11.362 72.835 32.87 102.987 5.009 6.981 12.335 10.842 20.395 10.842.856 0 1.722-.043 2.593-.132 9.613-.972 18.324-7.186 22.192-15.831 3.604-8.057 2.459-17.099-3.097-24.742z"></path><path d="m214.107 264.721c0 26.476 21.587 48.015 48.12 48.015s48.119-21.539 48.119-48.015-21.586-48.015-48.119-48.015-48.12 21.539-48.12 48.015zm81.24 0c0 18.205-14.857 33.015-33.119 33.015-18.263 0-33.12-14.81-33.12-33.015s14.857-33.015 33.12-33.015c18.261 0 33.119 14.81 33.119 33.015z"></path><path d="m273.537 172.375h-22.592c-7.855 0-14.246 6.383-14.246 14.229v2.17c-3.494 1.171-6.914 2.587-10.235 4.238l-1.544-1.54c-5.555-5.541-14.592-5.54-20.146 0l-15.929 15.888c-2.715 2.679-4.21 6.262-4.21 10.09s1.496 7.411 4.167 10.045l1.544 1.547c-1.637 3.283-3.051 6.69-4.232 10.197h-2.178c-7.855 0-14.246 6.383-14.246 14.229v22.505c0 7.846 6.391 14.229 14.246 14.229h2.178c1.182 3.507 2.596 6.914 4.232 10.197l-1.501 1.504c-2.715 2.679-4.21 6.262-4.21 10.089 0 3.828 1.495 7.411 4.181 10.06l15.959 15.918c5.555 5.539 14.591 5.541 20.146 0l1.544-1.54c3.321 1.65 6.741 3.066 10.235 4.238v2.17c0 7.846 6.391 14.229 14.246 14.229h22.592c7.855 0 14.246-6.383 14.246-14.229v-2.17c3.495-1.171 6.914-2.587 10.236-4.238l1.544 1.541c5.555 5.539 14.591 5.541 20.146 0l15.931-15.889c2.714-2.678 4.208-6.261 4.208-10.088s-1.494-7.41-4.18-10.06l-1.541-1.537c1.643-3.282 3.056-6.687 4.23-10.194h2.189c7.855 0 14.246-6.383 14.246-14.229v-22.505c0-7.846-6.391-14.229-14.246-14.229h-2.189c-1.175-3.507-2.588-6.913-4.23-10.194l1.512-1.508c2.714-2.678 4.209-6.261 4.209-10.088s-1.494-7.41-4.18-10.061l-15.959-15.917c-5.555-5.541-14.592-5.54-20.146 0l-1.543 1.54c-3.322-1.651-6.741-3.066-10.236-4.238v-2.17c-.002-7.846-6.392-14.229-14.248-14.229zm22.013 36.351c2.943 1.737 6.688 1.264 9.107-1.15l4.979-4.966 14.877 14.838-4.966 4.953c-2.439 2.434-2.907 6.217-1.133 9.171 3.15 5.246 5.529 10.972 7.07 17.019.847 3.322 3.839 5.647 7.268 5.647h7.041v20.963h-7.041c-3.429 0-6.421 2.325-7.268 5.647-1.541 6.047-3.92 11.773-7.07 17.019-1.774 2.955-1.307 6.738 1.133 9.171l4.966 4.953-14.877 14.838-4.979-4.966c-2.421-2.414-6.166-2.885-9.107-1.15-5.389 3.178-11.147 5.561-17.116 7.08-3.324.846-5.65 3.838-5.65 7.268v7.004h-21.084v-7.004c0-3.43-2.326-6.422-5.649-7.268-5.969-1.52-11.729-3.902-17.118-7.08-2.943-1.736-6.686-1.264-9.106 1.15l-4.979 4.966-14.878-14.839 4.953-4.965c2.421-2.428 2.888-6.188 1.133-9.135-3.135-5.263-5.521-11.006-7.092-17.07-.857-3.309-3.843-5.619-7.261-5.619h-7.013v-20.961h7.013c3.418 0 6.403-2.311 7.261-5.619 1.57-6.064 3.957-11.807 7.092-17.07 1.755-2.946 1.288-6.707-1.133-9.135l-4.953-4.965 14.878-14.84 4.979 4.966c2.418 2.412 6.163 2.886 9.106 1.15 5.39-3.178 11.149-5.561 17.118-7.08 3.323-.846 5.649-3.838 5.649-7.268v-7.003h21.084v7.003c0 3.43 2.326 6.422 5.65 7.268 5.968 1.519 11.727 3.901 17.116 7.079z"></path><path d="m504.791 391.175-33.761-32.77c-6.994-6.784-16.931-8.633-25.937-4.822-8.984 3.801-14.565 12.197-14.565 21.911v5.42h-34.849c.064-.065.131-.13.196-.195 32.562-32.479 50.951-75.625 51.778-121.478.29-14.858-1.296-29.6-4.699-43.906 16.052-10.924 26.613-29.306 26.613-50.105 0-33.429-27.271-60.625-60.791-60.625-11.983 0-23.157 3.493-32.581 9.492-23.733-17.564-51.343-28.895-80.389-32.981v-10.148c0-9.745-5.604-18.138-14.623-21.903-8.991-3.754-18.851-1.856-25.682 4.901l-33.751 32.759c-4.688 4.535-7.266 10.612-7.26 17.112.006 6.472 2.588 12.521 7.251 17.014l33.763 32.771c4.521 4.384 10.465 6.697 16.52 6.697 3.137 0 6.303-.621 9.316-1.896 8.976-3.799 14.551-12.339 14.551-22.286v-5.587c19.287 3.843 37.418 12.079 53.066 24.113-.608 3.434-.943 6.961-.943 10.567 0 28.683 20.074 52.759 46.937 59.022 2.76 10.748 4.126 21.791 4.058 32.877-.663 69.845-58.819 126.668-129.638 126.668h-87.73c-15.908 0-24.231 12.243-24.231 24.336s8.323 24.336 24.231 24.336h89.12 95.667c4.143 0 7.5-3.358 7.5-7.5s-3.357-7.5-7.5-7.5h-24.026c12.739-5.648 24.849-12.857 36.149-21.557h59.479c4.143 0 7.5-3.358 7.5-7.5v-12.92c0-5.388 4.142-7.56 5.41-8.097 1.279-.54 5.748-2.007 9.646 1.773l33.77 32.777c1.709 1.653 2.649 3.888 2.646 6.292-.002 2.39-.938 4.606-2.658 6.263l-33.757 32.792c-3.896 3.781-8.363 2.314-9.638 1.774-1.271-.538-5.419-2.713-5.419-8.125v-15.974c0-4.142-3.357-7.5-7.5-7.5h-36.396c-4.143 0-7.5 3.358-7.5 7.5s3.357 7.5 7.5 7.5h28.896v8.474c0 9.729 5.584 18.135 14.574 21.939 3.098 1.311 6.306 1.952 9.467 1.951 6.023 0 11.877-2.327 16.464-6.778l33.736-32.773c4.655-4.483 7.224-10.53 7.23-17.028.007-6.508-2.558-12.577-7.21-17.077zm-215.43-276.894c-2.144-.277-4.298.377-5.919 1.801-1.622 1.424-2.552 3.478-2.552 5.636v14.419c0 5.585-3.775 7.786-5.397 8.473-2.605 1.103-6.48 1.218-9.545-1.753l-33.779-32.787c-1.726-1.663-2.677-3.881-2.679-6.246-.002-2.394.953-4.637 2.698-6.326l33.81-32.817c3.762-3.719 8.151-2.297 9.405-1.773 1.268.529 5.402 2.674 5.402 8.061v16.794c0 3.849 2.914 7.074 6.743 7.462 27.611 2.799 54.021 12.72 76.749 28.761-4.276 4.588-7.849 9.832-10.548 15.568-19.057-13.548-41.114-22.236-64.388-25.273zm73.653 50.948c0-25.157 20.528-45.625 45.762-45.625 25.249 0 45.791 20.467 45.791 45.625s-20.542 45.625-45.791 45.625c-25.234 0-45.762-20.467-45.762-45.625zm8.44 217.201c-28.839 22.924-63.658 35.041-100.694 35.041h-89.12c-8.786 0-9.231-7.777-9.231-9.336s.445-9.336 9.231-9.336h87.73c79.012 0 143.896-63.488 144.638-141.551.065-10.586-1.035-21.122-3.275-31.443 6.437-.205 12.625-1.403 18.411-3.462 2.557 11.964 3.754 24.238 3.512 36.617-.756 41.952-17.58 81.422-47.422 111.188-4.088 4.151-8.593 8.167-13.78 12.282z"></path><path d="m435.667 147.904c-2.839-3.018-7.586-3.161-10.602-.323l-23.731 22.33-5.282-4.304c-3.212-2.617-7.936-2.135-10.552 1.077-2.616 3.211-2.134 7.935 1.077 10.552l10.375 8.454c1.384 1.127 3.062 1.686 4.736 1.686 1.854 0 3.702-.684 5.141-2.038l28.516-26.831c3.016-2.84 3.161-7.586.322-10.603z"></path></g></svg>