<svg xmlns="http://www.w3.org/2000/svg" id="Outline" height="512" viewBox="0 0 512 512" width="512"><path d="m240 48h-48c-4.418 0-8 3.582-8 8s3.582 8 8 8h48c4.418 0 8-3.582 8-8s-3.582-8-8-8z"></path><circle cx="160" cy="56" r="8"></circle><path d="m264 176c0-35.346-28.654-64-64-64s-64 28.654-64 64 28.654 64 64 64c35.33-.04 63.96-28.67 64-64zm-64 48c-7.061.006-14.036-1.556-20.42-4.572 6.92-11.278 21.673-14.81 32.95-7.89 3.214 1.972 5.917 4.676 7.89 7.89-6.384 3.016-13.359 4.578-20.42 4.572zm-16-48c0-8.837 7.163-16 16-16s16 7.163 16 16-7.163 16-16 16c-8.832-.01-15.99-7.168-16-16zm38.334 22.887c12.657-12.335 12.918-32.594.583-45.251s-32.594-12.918-45.251-.583-12.918 32.594-.583 45.251c.192.197.386.391.583.583-4.463 3.009-8.281 6.88-11.227 11.385-18.953-18.535-19.291-48.925-.756-67.878s48.925-19.291 67.878-.756 19.291 48.925.756 67.878c-.249.255-.501.507-.756.756-2.946-4.505-6.763-8.376-11.227-11.385z"></path><path d="m440 416c4.418 0 8-3.582 8-8v-48c0-4.418-3.582-8-8-8h-22.006c-.617-1.582-1.28-3.146-1.989-4.691l13.652-13.652c3.124-3.124 3.124-8.189 0-11.314l-32-32c-3.124-3.124-8.189-3.124-11.314 0l-13.652 13.657c-1.544-.708-3.108-1.371-4.691-1.989v-22.011c0-4.418-3.582-8-8-8h-24v-232c-.015-13.248-10.752-23.985-24-24h-224c-13.248.015-23.985 10.752-24 24v432c.015 13.248 10.752 23.985 24 24h272c4.418 0 8-3.582 8-8v-22.006c1.582-.617 3.146-1.28 4.691-1.989l13.652 13.652c3.124 3.124 8.189 3.124 11.314 0l32-32c3.124-3.124 3.124-8.189 0-11.314l-13.652-13.652c.708-1.545 1.371-3.108 1.989-4.691zm-360-376c.005-4.416 3.584-7.995 8-8h224c4.416.005 7.995 3.584 8 8v40h-240zm0 56h240v176h-8c-4.418 0-8 3.582-8 8v22.006c-1.582.617-3.146 1.28-4.691 1.989l-13.652-13.652c-3.124-3.124-8.189-3.124-11.314 0l-2.343 2.344v-28.687c0-4.418-3.582-8-8-8h-48c-4.418 0-8 3.582-8 8v48c0 4.418 3.582 8 8 8h28.687l-2.344 2.343c-3.124 3.124-3.124 8.189 0 11.314l13.657 13.652c-.708 1.544-1.371 3.108-1.989 4.691h-22.011c-4.418 0-8 3.582-8 8v40h-144zm176 176v32h-32v-32zm48 208h-216c-4.416-.005-7.995-3.584-8-8v-56h174.006c.617 1.582 1.28 3.146 1.989 4.691l-13.652 13.652c-3.124 3.124-3.124 8.189 0 11.314l32 32c3.124 3.124 8.189 3.124 11.314 0l13.652-13.652c1.545.708 3.108 1.371 4.691 1.989zm96.613-52.073 12.074 12.073-20.687 20.687-12.073-12.074c-2.51-2.509-6.372-3.066-9.488-1.366-4.089 2.23-8.387 4.055-12.831 5.449-3.337 1.046-5.608 4.137-5.608 7.634v19.67h-32v-19.67c0-3.497-2.271-6.588-5.608-7.634-4.444-1.394-8.742-3.219-12.831-5.449-3.116-1.7-6.978-1.143-9.488 1.366l-12.073 12.074-20.687-20.687 12.074-12.073c2.509-2.51 3.066-6.372 1.366-9.488-2.23-4.089-4.055-8.387-5.449-12.831-1.046-3.337-4.137-5.608-7.634-5.608h-19.67v-32h19.67c3.497 0 6.588-2.271 7.634-5.608 1.394-4.444 3.219-8.742 5.449-12.831 1.7-3.116 1.143-6.978-1.366-9.488l-12.074-12.073 10.34-10.339.008-.008 10.339-10.34 12.073 12.074c2.51 2.509 6.372 3.066 9.488 1.366 4.089-2.23 8.387-4.055 12.831-5.449 3.337-1.046 5.608-4.137 5.608-7.634v-19.67h32v19.67c0 3.497 2.271 6.588 5.608 7.634 4.444 1.394 8.742 3.219 12.831 5.449 3.116 1.7 6.978 1.143 9.488-1.366l12.073-12.074 20.687 20.687-12.074 12.073c-2.509 2.51-3.066 6.372-1.366 9.488 2.23 4.089 4.055 8.387 5.449 12.831 1.046 3.337 4.137 5.608 7.634 5.608h19.67v32h-19.67c-3.497 0-6.588 2.271-7.634 5.608-1.394 4.444-3.219 8.742-5.449 12.831-1.7 3.116-1.143 6.978 1.366 9.488z"></path><path d="m336 320c-35.346 0-64 28.654-64 64s28.654 64 64 64 64-28.654 64-64c-.04-35.33-28.67-63.96-64-64zm0 112c-26.51 0-48-21.49-48-48s21.49-48 48-48 48 21.49 48 48c-.03 26.497-21.503 47.97-48 48z"></path><path d="m336 352c-17.673 0-32 14.327-32 32s14.327 32 32 32 32-14.327 32-32c-.02-17.665-14.335-31.98-32-32zm0 48c-8.837 0-16-7.163-16-16s7.163-16 16-16 16 7.163 16 16c-.01 8.832-7.168 15.99-16 16z"></path><path d="m184 256h-48c-4.418 0-8 3.582-8 8v48c0 4.418 3.582 8 8 8h48c4.418 0 8-3.582 8-8v-48c0-4.418-3.582-8-8-8zm-8 48h-32v-32h32z"></path><path d="m184 336h-48c-4.418 0-8 3.582-8 8s3.582 8 8 8h48c4.418 0 8-3.582 8-8s-3.582-8-8-8z"></path><path d="m184 368h-48c-4.418 0-8 3.582-8 8s3.582 8 8 8h48c4.418 0 8-3.582 8-8s-3.582-8-8-8z"></path></svg>