<svg xmlns="http://www.w3.org/2000/svg" fill="none" height="256" viewBox="0 0 256 256" width="256"><path clip-rule="evenodd" d="m186 160.007-25.935 25.993-18.734-18.776c-3.978 1.315-8.23 2.027-12.648 2.027-19.477 0-35.7307-13.833-39.5137-32.232l-19.1693-67.019 68.839 19.672c17.366 4.5131 30.189 20.327 30.189 39.143 0 4.283-.664 8.409-1.895 12.283zm-49.069-63.3401-49.244-14.0723 36.208 36.2894c1.447-.703 3.072-1.096 4.788-1.096 6.077 0 11.003 4.937 11.003 11.027 0 6.091-4.926 11.028-11.003 11.028s-11.003-4.937-11.003-11.028c0-1.72.393-3.348 1.094-4.799l-36.1448-36.2261 13.5862 47.5001.0554.269c3.106 15.106 16.4562 26.442 32.4122 26.442 3.635 0 7.119-.585 10.373-1.661l4.248-1.404 16.761 16.799 15.693-15.728-16.868-16.907 1.333-4.198c1.008-3.171 1.555-6.558 1.555-10.087 0-15.443-10.524-28.426-24.762-32.1261z" fill="#000" fill-rule="evenodd"></path></svg>