<svg xmlns="http://www.w3.org/2000/svg" id="Layer_1" viewBox="0 0 512 512"><path d="m256 86.22c-77.65 0-140.82 63.17-140.82 140.82 0 55.17 23.36 84.44 48.08 115.43 11.06 13.86 22.45 28.14 31.8 45.21-7.94 2.75-13.67 10.28-13.67 19.14 0 6.1 2.72 11.57 7.01 15.29-4.33 4.33-7.01 10.31-7.01 16.9 0 11.25 7.81 20.7 18.29 23.25 2.61 19.58 19.41 34.74 39.7 34.74h33.23c20.28 0 37.08-15.16 39.7-34.74 10.48-2.54 18.29-12 18.29-23.25 0-6.59-2.68-12.57-7.01-16.9 4.28-3.72 7.01-9.19 7.01-15.29 0-8.86-5.73-16.4-13.67-19.14 9.35-17.07 20.74-31.35 31.8-45.21 24.73-30.99 48.08-60.27 48.08-115.43.01-77.64-63.16-140.82-140.81-140.82zm16.62 398.78h-33.23c-13.41 0-24.65-9.46-27.41-22.06h88.05c-2.76 12.6-14 22.06-27.41 22.06zm34.06-34.06h-101.36c-6.57 0-11.92-5.35-11.92-11.92s5.35-11.92 11.92-11.92h101.35c6.57 0 11.92 5.35 11.92 11.92s-5.34 11.92-11.91 11.92zm3.65-35.85v.28c-1.19-.18-2.41-.28-3.66-.28h-101.35c-1.24 0-2.46.1-3.66.28v-.28c-4.56 0-8.27-3.71-8.27-8.27s3.71-8.27 8.27-8.27h108.67c4.56 0 8.27 3.71 8.27 8.27s-3.71 8.27-8.27 8.27zm29.03-80.1c-12.36 15.5-25.12 31.5-35.4 51.57h-95.91c-10.28-20.07-23.04-36.07-35.4-51.57-23.38-29.3-45.46-56.99-45.46-107.95 0-71.03 57.79-128.82 128.82-128.82s128.82 57.79 128.82 128.82c-.01 50.97-22.09 78.65-45.47 107.95zm-50.58-159.94h-65.62c-10.54 0-19.11 8.57-19.11 19.11v65.62c0 10.54 8.57 19.11 19.11 19.11h65.62c10.54 0 19.11-8.57 19.11-19.11v-65.62c0-10.53-8.57-19.11-19.11-19.11zm7.11 84.74c0 3.92-3.19 7.11-7.11 7.11h-65.62c-3.92 0-7.11-3.19-7.11-7.11v-65.62c0-3.92 3.19-7.11 7.11-7.11h65.62c3.92 0 7.11 3.19 7.11 7.11zm36.85-83.27c0-14.51-11.8-26.31-26.31-26.31h-10.9v-28.5c0-3.31-2.69-6-6-6s-6 2.69-6 6v28.5h-21.56v-28.5c0-3.31-2.69-6-6-6s-6 2.69-6 6v28.5h-21.56v-28.5c0-3.31-2.69-6-6-6s-6 2.69-6 6v28.5h-10.89c-14.51 0-26.31 11.8-26.31 26.31v10.9h-28.5c-3.31 0-6 2.69-6 6s2.69 6 6 6h28.5v21.56h-28.5c-3.31 0-6 2.69-6 6s2.69 6 6 6h28.5v21.56h-28.5c-3.31 0-6 2.69-6 6s2.69 6 6 6h28.5v10.89c0 14.51 11.8 26.31 26.31 26.31h10.9v28.5c0 3.31 2.69 6 6 6s6-2.69 6-6v-28.5h21.56v28.5c0 3.31 2.69 6 6 6s6-2.69 6-6v-28.5h21.57v28.5c0 3.31 2.69 6 6 6s6-2.69 6-6v-28.5h10.89c14.51 0 26.31-11.8 26.31-26.31v-10.9h28.5c3.31 0 6-2.69 6-6s-2.69-6-6-6h-28.5v-21.56h28.5c3.31 0 6-2.69 6-6s-2.69-6-6-6h-28.5v-21.56h28.5c3.31 0 6-2.69 6-6s-2.69-6-6-6h-28.5v-10.89zm-12 100.91c0 7.89-6.42 14.31-14.31 14.31h-100.92c-7.89 0-14.31-6.42-14.31-14.31v-100.91c0-7.89 6.42-14.31 14.31-14.31h100.92c7.89 0 14.31 6.42 14.31 14.31zm-67.69-71.99c-1.02-2.03-3.09-3.32-5.37-3.32s-4.35 1.28-5.37 3.32l-19.14 38.29c-1.48 2.96-.28 6.57 2.68 8.05 2.97 1.48 6.57.28 8.05-2.68l3.5-7h20.55l3.5 7c1.05 2.1 3.17 3.32 5.37 3.32.9 0 1.82-.2 2.68-.63 2.96-1.48 4.17-5.09 2.68-8.05zm-9.64 24.65 4.28-8.55 4.28 8.55zm45.99-22.55v38.29c0 3.31-2.69 6-6 6s-6-2.69-6-6v-38.29c0-3.31 2.69-6 6-6s6 2.69 6 6zm-39.4-151.59v-34.95c0-3.31 2.69-6 6-6s6 2.69 6 6v34.95c0 3.31-2.69 6-6 6s-6-2.69-6-6zm155.88 21.16c2.34 2.34 2.34 6.14 0 8.49l-24.71 24.71c-1.17 1.17-2.71 1.76-4.24 1.76-1.54 0-3.07-.59-4.24-1.76-2.34-2.34-2.34-6.14 0-8.49l24.71-24.71c2.34-2.35 6.14-2.34 8.48 0zm62.07 149.89c0 3.31-2.69 6-6 6h-34.95c-3.31 0-6-2.69-6-6s2.69-6 6-6h34.95c3.31 0 6 2.69 6 6zm-337.12-116.69-24.71-24.71c-2.34-2.34-2.34-6.14 0-8.49 2.34-2.34 6.14-2.34 8.49 0l24.71 24.71c2.34 2.34 2.34 6.14 0 8.49-1.17 1.17-2.71 1.76-4.24 1.76s-3.08-.59-4.25-1.76zm-39.83 116.69c0 3.31-2.69 6-6 6h-34.95c-3.31 0-6-2.69-6-6s2.69-6 6-6h34.95c3.32 0 6 2.69 6 6z"></path></svg>